# xmcd
#
# Track frame offsets:
#	150
#	11260
#	24315
#	36996
#	56767
#	70196
#	85987
#	99175
#	108783
#	123302
#	135588
#	148154
#	160840
#	170566
#	183134
#	196055
#	206763
#	218088
#	230327
#	243997
#
# Disc length: 3421
#
# Revision: 1
# Processed by: cddbd v1.5.1PL0 Copyright (c) Steve Scherf et al.
# Submitted via: ExactAudioCopy v0.90b4
# Normalized: r0:DSETVAR1
#
DISCID=080d5b14
DTITLE=Various Artist - Ladies Singing The Blues
DYEAR=1999
DGENRE=Blues
TTITLE0=Dusty Springfield - Son Of A Preacher Man
TTITLE1=Nina Simone - Feeling Good
TTITLE2=Dionne Warwick - The Look Of Love
TTITLE3=Aretha Franklin - Today I Sing The Blues
TTITLE4=Etta James - Do Right Woman - Do Right Man
TTITLE5=Lorraine Ellison - Stay With Me Baby
TTITLE6=Barbara Acklin - Love Makes A Woman
TTITLE7=Dinah Washington - September In The Rain
TTITLE8=Ella Fitzgerald - But Not For Me
TTITLE9=Baby Washington - That's How Heartaches Are Made
TTITLE10=Tami Lynn - I'm Gonna Run Away From You
TTITLE11=Julie London - Cry Me A River
TTITLE12=Peggy Lee - I'm A Woman
TTITLE13=Nina Simone - Don't Let Me Be Misunderstood
TTITLE14=Irma Thomas - A Woman Will Do Wrong
TTITLE15=Ruby Johnson - If I Ever Needed Love
TTITLE16=Barbara Lewis - Make Me Your Baby
TTITLE17=Ann Peeples - I'm Gonna Tear Your Playhouse Down
TTITLE18=Gladys Knight and The Pips - The One And Only
TTITLE19=Erma Franklin - Ev'ry Time We Say Goodbye
EXTD=
EXTT0=
EXTT1=
EXTT2=
EXTT3=
EXTT4=
EXTT5=
EXTT6=
EXTT7=
EXTT8=
EXTT9=
EXTT10=
EXTT11=
EXTT12=
EXTT13=
EXTT14=
EXTT15=
EXTT16=
EXTT17=
EXTT18=
EXTT19=
PLAYORDER=
